<svg version="1.1" id="Layer_1" xmlns="http://www.w3.org/2000/svg" xmlns:xlink="http://www.w3.org/1999/xlink" x="0px" y="0px"
	 width="100%" viewBox="0 0 1024 1024" enable-background="new 0 0 1024 1024" xml:space="preserve">
<path fill="white" opacity="1.000000" stroke="none" 
	d="
M543.156250,641.438599 
	C528.669373,644.899109 514.480347,644.637451 500.122894,643.649109 
	C482.487976,642.434998 466.147064,637.138123 450.696991,629.165833 
	C423.193481,614.974060 401.403992,594.742615 387.706177,566.564819 
	C376.716431,543.957703 371.530060,519.853210 369.948273,494.916901 
	C369.537689,488.443481 369.988129,481.815369 371.984070,475.654358 
	C374.770416,467.053497 376.638123,458.353607 377.713745,449.400513 
	C378.540100,442.522156 381.777466,436.360809 384.913269,430.343811 
	C388.137787,424.156555 394.977631,423.130219 400.674866,427.481689 
	C403.449554,429.601013 405.969116,432.051331 408.647247,434.300507 
	C423.659302,446.908325 440.965637,448.538849 459.495972,445.312378 
	C477.250092,442.221008 490.990082,432.512878 503.320068,420.112213 
	C520.172546,403.162994 540.534729,392.699432 564.064026,389.088654 
	C583.773926,386.063995 602.042480,391.074615 618.906860,401.517853 
	C633.800354,410.740662 643.425842,424.296753 650.319580,439.984680 
	C659.822388,461.609894 663.073914,484.467041 661.092957,507.772369 
	C659.790588,523.094910 656.349548,538.094604 650.118347,552.553406 
	C646.487671,560.977966 642.018616,568.893433 637.624268,576.754517 
	C632.644775,585.662170 625.690247,593.486877 618.624695,601.016479 
	C599.121277,621.800781 574.107483,632.568787 547.412903,640.301697 
	C546.135681,640.671753 544.847900,641.005188 543.156250,641.438599 
M416.984375,571.510498 
	C423.588318,580.387695 431.672211,587.755798 440.125977,594.834290 
	C461.591522,612.807861 486.584869,621.429443 514.193787,621.337036 
	C533.948975,621.270935 553.110901,616.574768 571.023071,607.825378 
	C599.719299,593.808411 620.448242,572.649536 629.754639,541.462646 
	C634.615967,525.171814 631.232727,518.214905 616.458740,510.176910 
	C605.957703,504.463745 594.832214,503.357635 583.551086,504.532562 
	C568.234070,506.127869 554.332642,511.461090 542.787537,522.442078 
	C535.181946,529.676025 528.151978,537.511902 519.457397,543.686890 
	C502.487915,555.738708 483.954224,562.682190 463.177002,564.593689 
	C442.132782,566.529724 422.766602,563.578430 405.834747,548.478027 
	C407.269592,557.615784 412.478546,564.002625 416.984375,571.510498 
M572.014709,458.459503 
	C555.926758,461.679901 542.061096,469.305817 529.804626,479.990784 
	C523.986389,485.062927 518.639893,490.639191 512.839600,495.765625 
	C498.246460,508.663239 481.118011,515.646362 462.274445,518.939636 
	C443.236359,522.266907 425.213867,519.525635 408.651093,509.092560 
	C403.887878,506.092194 400.488068,501.469269 395.791138,497.871155 
	C396.399902,506.617706 398.911682,512.882324 403.722992,519.369751 
	C414.876587,534.408691 431.081787,539.931458 448.468689,541.417664 
	C474.903503,543.677307 497.987213,534.970337 517.063416,516.340088 
	C523.510315,510.043854 529.990295,503.757874 537.264465,498.473114 
	C561.653992,480.753967 588.216797,475.898468 617.093750,485.668579 
	C624.640198,488.221802 631.707336,491.725616 638.028564,496.294067 
	C640.110107,494.418488 639.299072,492.771179 638.918457,491.205597 
	C636.590637,481.630646 630.698547,474.570221 622.783936,469.155304 
	C607.648987,458.800507 590.929993,455.401123 572.014709,458.459503 
M489.247589,484.715363 
	C494.879517,482.028687 499.554077,478.015991 504.224915,473.980377 
	C513.418823,466.037048 521.264771,456.591461 531.440613,449.738831 
	C552.943481,435.258362 576.652100,430.959534 601.940491,434.876984 
	C611.778442,436.401001 621.062683,440.046692 629.751038,445.724243 
	C630.042053,442.908905 628.755981,441.310547 627.833252,439.597290 
	C618.386108,422.057251 602.490540,414.464233 583.772156,412.518127 
	C558.232300,409.862885 537.057434,420.329681 518.247009,436.581512 
	C511.584351,442.337921 505.412262,448.727783 498.383392,453.981812 
	C480.378448,467.440338 460.080750,473.478790 437.492493,471.392944 
	C425.267120,470.264069 414.042664,466.791199 404.486725,458.777527 
	C400.537109,455.465271 396.512207,452.242828 391.785492,448.377686 
	C392.750763,451.472290 393.369751,453.531219 394.034180,455.575348 
	C401.011627,477.042358 415.197998,490.701019 437.623505,494.805481 
	C455.755463,498.124054 472.613220,493.616058 489.247589,484.715363 
z"/>
</svg>